<svg xmlns="http://www.w3.org/2000/svg" version="1.1" xmlns:xlink="http://www.w3.org/1999/xlink" xmlns:svgjs="http://svgjs.dev/svgjs" width="1180" height="720" preserveAspectRatio="none" viewBox="0 0 1180 720"><g mask="url(&quot;#SvgjsMask1116&quot;)" fill="none"><rect width="1180" height="720" x="0" y="0" fill="rgba(0, 0, 0, 1)"></rect><g transform="translate(0, 0)" stroke-linecap="round"><path d="M380 255.18 L380 464.82" stroke-width="7.5" stroke="rgba(221, 17, 51, 1)"></path><path d="M390 250.14 L390 469.86" stroke-width="7.5" stroke="rgba(144, 231, 87, 1)"></path><path d="M400 314.08 L400 405.92" stroke-width="7.5" stroke="rgba(144, 231, 87, 1)"></path><path d="M410 288.76 L410 431.24" stroke-width="7.5" stroke="rgba(221, 17, 51, 1)"></path><path d="M420 325.63 L420 394.37" stroke-width="7.5" stroke="rgba(144, 231, 87, 1)"></path><path d="M430 232 L430 488" stroke-width="7.5" stroke="rgba(221, 17, 51, 1)"></path><path d="M440 299.89 L440 420.11" stroke-width="7.5" stroke="rgba(221, 17, 51, 1)"></path><path d="M450 287.08 L450 432.92" stroke-width="7.5" stroke="rgba(221, 17, 51, 1)"></path><path d="M460 342.88 L460 377.13" stroke-width="7.5" stroke="rgba(144, 231, 87, 1)"></path><path d="M470 337.33 L470 382.67" stroke-width="7.5" stroke="rgba(144, 231, 87, 1)"></path><path d="M480 235.83 L480 484.17" stroke-width="7.5" stroke="rgba(221, 17, 51, 1)"></path><path d="M490 272.06 L490 447.94" stroke-width="7.5" stroke="rgba(144, 231, 87, 1)"></path><path d="M500 286.9 L500 433.1" stroke-width="7.5" stroke="rgba(221, 17, 51, 1)"></path><path d="M510 294.93 L510 425.07" stroke-width="7.5" stroke="rgba(144, 231, 87, 1)"></path><path d="M520 244.44 L520 475.56" stroke-width="7.5" stroke="rgba(144, 231, 87, 1)"></path><path d="M530 257.15 L530 462.85" stroke-width="7.5" stroke="rgba(144, 231, 87, 1)"></path><path d="M540 333.15 L540 386.85" stroke-width="7.5" stroke="rgba(144, 231, 87, 1)"></path><path d="M550 308.12 L550 411.88" stroke-width="7.5" stroke="rgba(221, 17, 51, 1)"></path><path d="M560 328.59 L560 391.41" stroke-width="7.5" stroke="rgba(221, 17, 51, 1)"></path><path d="M570 327.03 L570 392.97" stroke-width="7.5" stroke="rgba(144, 231, 87, 1)"></path><path d="M580 268.33 L580 451.67" stroke-width="7.5" stroke="rgba(144, 231, 87, 1)"></path><path d="M590 338.23 L590 381.77" stroke-width="7.5" stroke="rgba(221, 17, 51, 1)"></path><path d="M600 247.66 L600 472.34" stroke-width="7.5" stroke="rgba(221, 17, 51, 1)"></path><path d="M610 262.31 L610 457.69" stroke-width="7.5" stroke="rgba(221, 17, 51, 1)"></path><path d="M620 318.4 L620 401.6" stroke-width="7.5" stroke="rgba(144, 231, 87, 1)"></path><path d="M630 306.88 L630 413.12" stroke-width="7.5" stroke="rgba(221, 17, 51, 1)"></path><path d="M640 286.67 L640 433.33" stroke-width="7.5" stroke="rgba(144, 231, 87, 1)"></path><path d="M650 294.86 L650 425.14" stroke-width="7.5" stroke="rgba(144, 231, 87, 1)"></path><path d="M660 250.82 L660 469.18" stroke-width="7.5" stroke="rgba(221, 17, 51, 1)"></path><path d="M670 251.88 L670 468.12" stroke-width="7.5" stroke="rgba(221, 17, 51, 1)"></path><path d="M680 332.96 L680 387.04" stroke-width="7.5" stroke="rgba(221, 17, 51, 1)"></path><path d="M690 240.23 L690 479.77" stroke-width="7.5" stroke="rgba(221, 17, 51, 1)"></path><path d="M700 255.52 L700 464.48" stroke-width="7.5" stroke="rgba(144, 231, 87, 1)"></path><path d="M710 297.24 L710 422.76" stroke-width="7.5" stroke="rgba(144, 231, 87, 1)"></path><path d="M720 285.88 L720 434.12" stroke-width="7.5" stroke="rgba(144, 231, 87, 1)"></path><path d="M730 241.88 L730 478.12" stroke-width="7.5" stroke="rgba(144, 231, 87, 1)"></path><path d="M740 289.77 L740 430.23" stroke-width="7.5" stroke="rgba(221, 17, 51, 1)"></path><path d="M750 343.33 L750 376.67" stroke-width="7.5" stroke="rgba(144, 231, 87, 1)"></path><path d="M760 232.61 L760 487.39" stroke-width="7.5" stroke="rgba(144, 231, 87, 1)"></path><path d="M770 294.14 L770 425.86" stroke-width="7.5" stroke="rgba(144, 231, 87, 1)"></path><path d="M780 314.28 L780 405.72" stroke-width="7.5" stroke="rgba(221, 17, 51, 1)"></path><path d="M790 341.94 L790 378.06" stroke-width="7.5" stroke="rgba(144, 231, 87, 1)"></path><path d="M800 312.19 L800 407.81" stroke-width="7.5" stroke="rgba(144, 231, 87, 1)"></path></g></g><defs><mask id="SvgjsMask1116"><rect width="1180" height="720" fill="#ffffff"></rect></mask></defs></svg>